<?xml version="1.0" standalone="no"?>
<!DOCTYPE svg PUBLIC "-//W3C//DTD SVG 20010904//EN"
 "http://www.w3.org/TR/2001/REC-SVG-20010904/DTD/svg10.dtd">
<svg version="1.0" xmlns="http://www.w3.org/2000/svg"
 width="993.000000pt" height="993.000000pt" viewBox="0 0 993.000000 993.000000"
 preserveAspectRatio="xMidYMid meet">
<metadata>
Created by potrace 1.11, written by Peter Selinger 2001-2013
</metadata>
<g transform="translate(0.000000,993.000000) scale(0.100000,-0.100000)"
fill="#000000" stroke="none">
<path d="M4715 7543 c-269 -461 -740 -1268 -1047 -1793 -307 -525 -561 -956
-565 -957 -5 -1 -212 186 -462 417 -250 231 -458 420 -462 420 -5 0 -103 -190
-220 -422 -116 -233 -289 -576 -384 -763 -95 -187 -305 -603 -467 -925 -163
-322 -445 -880 -627 -1241 -182 -361 -331 -659 -331 -662 0 -4 2165 -7 4811
-7 4577 0 4811 1 4806 18 -2 9 -110 271 -239 582 -129 311 -409 984 -621 1495
-764 1843 -1179 2843 -1240 2988 -33 81 -65 146 -71 144 -5 -2 -159 -264 -343
-583 -183 -318 -337 -580 -341 -581 -4 -1 -153 233 -331 520 -787 1266 -1364
2187 -1370 2187 -4 0 -227 -377 -496 -837z m540 466 c7 -30 104 -436 215 -904
111 -467 213 -893 225 -945 12 -52 82 -345 155 -650 73 -305 147 -618 165
-695 18 -77 43 -182 55 -233 l23 -93 -30 -32 c-16 -18 -200 -216 -408 -442
-208 -225 -392 -425 -408 -442 -17 -18 -28 -35 -26 -38 3 -2 241 153 529 345
289 192 527 346 531 342 4 -4 421 -559 927 -1234 l921 -1228 -3870 0 -3870 0
292 578 c160 317 392 775 514 1017 122 242 401 796 620 1230 219 435 401 793
404 797 3 3 210 -182 460 -413 250 -230 457 -419 460 -419 3 1 444 751 979
1668 535 917 1000 1714 1033 1771 69 117 80 119 104 20z"/>
</g>
</svg>
