<svg id="Gruppe_1" data-name="Gruppe 1" xmlns="http://www.w3.org/2000/svg" xmlns:xlink="http://www.w3.org/1999/xlink" width="1677" height="282" viewBox="0 0 1677 282">
  <metadata><?xpacket begin="﻿" id="W5M0MpCehiHzreSzNTczkc9d"?>
<x:xmpmeta xmlns:x="adobe:ns:meta/" x:xmptk="Adobe XMP Core 5.6-c142 79.160924, 2017/07/13-01:06:39        ">
   <rdf:RDF xmlns:rdf="http://www.w3.org/1999/02/22-rdf-syntax-ns#">
      <rdf:Description rdf:about=""/>
   </rdf:RDF>
</x:xmpmeta>
                                                                                                    
                                                                                                    
                                                                                                    
                                                                                                    
                                                                                                    
                                                                                                    
                                                                                                    
                                                                                                    
                                                                                                    
                                                                                                    
                                                                                                    
                                                                                                    
                                                                                                    
                                                                                                    
                                                                                                    
                                                                                                    
                                                                                                    
                                                                                                    
                                                                                                    
                                                                                                    
                           
<?xpacket end="w"?></metadata>
<defs>
    <style>
      .cls-1, .cls-2 {
        fill: none;
        fill-rule: evenodd;
        stroke: #fff;
        stroke-width: 7px;
        stroke-linejoin: round;
      }
    </style>
  </defs>
  <path id="hol" class="cls-1" d="M97.532,82.26a90.362,90.362,0,0,0-33.726,6.287,79.736,79.736,0,0,0-27.267,17.782V18.316q0-8.26-5.023-13.292T18.241,0a18.081,18.081,0,0,0-13.1,5.029Q-0.06,10.06-.057,18.316V262.6a17.8,17.8,0,0,0,18.3,18.321q8.249,0,13.275-5.209A18.13,18.13,0,0,0,36.539,262.6v-101.3a40.952,40.952,0,0,1,7-23.35,48.73,48.73,0,0,1,19.374-16.525,61.2,61.2,0,0,1,27.447-6.107q25.833,0,41.44,14.908T147.4,174.225V262.6a18.3,18.3,0,1,0,36.6,0V174.225q0-29.1-11.122-49.755a75.916,75.916,0,0,0-30.855-31.433Q122.286,82.26,97.532,82.26h0ZM384.2,82.62q-28.709,0-51.306,12.753a90.067,90.067,0,0,0-35.161,35.385q-12.562,22.632-12.557,51.73,0,28.745,12.557,51.371a90.029,90.029,0,0,0,35.161,35.384Q355.5,282,384.2,282t51.127-12.753a90.429,90.429,0,0,0,34.981-35.384q12.555-22.632,12.557-51.371,0-29.1-12.737-51.73a91.71,91.71,0,0,0-35.16-35.385Q412.541,82.625,384.2,82.62h0Zm0,32.331a63.11,63.11,0,0,1,32.829,8.621,59.311,59.311,0,0,1,22.6,24.069q8.073,15.45,8.073,34.846t-8.073,34.666a59.539,59.539,0,0,1-22.6,23.889,66.811,66.811,0,0,1-65.658,0,60.769,60.769,0,0,1-22.782-23.889q-8.257-15.264-8.252-34.666t8.252-34.846a60.521,60.521,0,0,1,22.782-24.069,63.108,63.108,0,0,1,32.829-8.621h0Zm196.25-96.994V214.1q0,19.044,6.817,34.307t19.2,23.709a48.2,48.2,0,0,0,27.8,8.442h0.718q10.764,0,17.58-5.029t6.817-12.932q0-7.9-4.485-12.933a14.9,14.9,0,0,0-11.66-5.029h-8.97q-7.9,0-12.916-8.622T616.327,214.1V17.957a17.945,17.945,0,1,0-35.878,0h0Z"/>
  <path id="one" class="cls-2" d="M1002.02,82.527q-28.713,0-51.309,12.753a90.069,90.069,0,0,0-35.161,35.385Q902.988,153.3,902.993,182.4q0,28.744,12.557,51.371a90.036,90.036,0,0,0,35.161,35.384q22.6,12.756,51.309,12.753t51.12-12.753a90.458,90.458,0,0,0,34.99-35.384q12.54-22.632,12.55-51.371,0-29.1-12.73-51.73a91.75,91.75,0,0,0-35.17-35.385q-22.425-12.747-50.76-12.753h0Zm0,32.332a63.107,63.107,0,0,1,32.83,8.621,59.337,59.337,0,0,1,22.6,24.069q8.07,15.45,8.07,34.846t-8.07,34.666a59.565,59.565,0,0,1-22.6,23.889,66.818,66.818,0,0,1-65.662,0,60.769,60.769,0,0,1-22.782-23.889q-8.257-15.264-8.252-34.666t8.252-34.846a60.521,60.521,0,0,1,22.782-24.069,63.1,63.1,0,0,1,32.832-8.621h0Zm301.01-32.691a90.336,90.336,0,0,0-33.72,6.287,79.707,79.707,0,0,0-27.27,17.782v-3.952q0-8.259-5.02-13.291-5.04-5.026-13.28-5.029a18.067,18.067,0,0,0-13.09,5.029q-5.22,5.035-5.21,13.291V262.5a17.809,17.809,0,0,0,18.3,18.321q8.25,0,13.28-5.208a18.156,18.156,0,0,0,5.02-13.113V161.2a40.978,40.978,0,0,1,6.99-23.35,48.8,48.8,0,0,1,19.38-16.525,61.193,61.193,0,0,1,27.45-6.107q25.83,0,41.44,14.908t15.6,44.006V262.5a18.3,18.3,0,1,0,36.6,0V174.132q0-29.1-11.12-49.754a75.958,75.958,0,0,0-30.86-31.433q-19.74-10.777-44.49-10.777h0Zm373.49,96.994q0-28.374-10.76-50.293a80.547,80.547,0,0,0-30.86-34.128q-20.1-12.208-47.72-12.214-27.975,0-50.05,12.753a89.561,89.561,0,0,0-34.44,35.565q-12.375,22.817-12.38,51.55t13.1,51.371a92.389,92.389,0,0,0,36.42,35.384q23.31,12.756,52.74,12.753a108.252,108.252,0,0,0,34.62-6.107q18.105-6.1,30.32-15.806,5.73-4.311,5.74-10.777,0-6.821-6.46-12.214-3.96-3.586-10.76-3.593a18.563,18.563,0,0,0-11.84,3.952,66.96,66.96,0,0,1-19.2,9.7,69.661,69.661,0,0,1-22.42,3.952q-27.27,0-46.11-15.447-18.825-15.443-22.78-40.594h136.34a16.37,16.37,0,0,0,11.84-4.49,15.072,15.072,0,0,0,4.66-11.316h0Zm-89.34-65.74q23.685,0,38.39,14.369t17.94,38.438H1524.04q4.305-24.063,20.63-38.438t42.51-14.369h0Z"/>
  <path id="Form_1" data-name="Form 1" class="cls-2" d="M774.38,144.063c89.093-2.808,97.114,120.288,18.982,136.432-54.156,11.19-95.274-42.071-76.929-93.3C735.259,141.976,777.191,144.147,774.38,144.063Zm-31.971,48.152c40.492-32.222,91.018,17.077,57.947,61.194,18.22-6.677,39.677-52.3,5-78.248C786.054,161.843,753.044,165.237,742.409,192.215Z"/>
</svg>
