<?xml version="1.0" standalone="no"?><!-- Generator: Gravit.io --><svg xmlns="http://www.w3.org/2000/svg" xmlns:xlink="http://www.w3.org/1999/xlink" style="isolation:isolate" viewBox="0 0 993 226" width="993" height="226"><defs><clipPath id="_clipPath_YXuwojyNgqVxHjjtCfN5XljdYTUq65Hc"><rect width="993" height="226"/></clipPath></defs><g clip-path="url(#_clipPath_YXuwojyNgqVxHjjtCfN5XljdYTUq65Hc)"><mask id="_mask_Y2RoSPgL8Z5CN3H6rJvR5x45ysMOX1Uf" x="-200%" y="-200%" width="400%" height="400%"><rect x="-200%" y="-200%" width="400%" height="400%" style="fill:white;"/><path d=" M 793.417 187.451 L 727.262 64.501 L 727.262 187.451 L 708.118 187.451 L 708.118 38.549 L 734.92 38.549 L 800.65 162.35 L 800.65 38.549 L 819.794 38.549 L 819.794 187.451 L 793.417 187.451 Z  M 858.083 187.451 L 858.083 38.549 L 947.425 38.549 L 947.425 55.992 L 878.292 55.992 L 878.292 101.301 L 937.852 101.301 L 937.852 118.318 L 878.292 118.318 L 878.292 170.008 L 947.425 170.008 L 947.425 187.451 L 858.083 187.451 Z  M 537.732 112.787 L 537.732 112.787 L 537.732 112.787 Q 537.732 96.408 542.518 82.369 L 542.518 82.369 L 542.518 82.369 Q 547.304 68.329 556.344 58.013 L 556.344 58.013 L 556.344 58.013 Q 565.385 47.696 578.361 41.846 L 578.361 41.846 L 578.361 41.846 Q 591.336 35.996 607.928 35.996 L 607.928 35.996 L 607.928 35.996 Q 624.307 35.996 637.39 42.059 L 637.39 42.059 L 637.39 42.059 Q 650.472 48.121 659.512 58.544 L 659.512 58.544 L 659.512 58.544 Q 668.553 68.968 673.445 82.901 L 673.445 82.901 L 673.445 82.901 Q 678.338 96.834 678.338 112.787 L 678.338 112.787 L 678.338 112.787 Q 678.338 128.741 673.551 142.78 L 673.551 142.78 L 673.551 142.78 Q 668.765 156.82 659.618 167.349 L 659.618 167.349 L 659.618 167.349 Q 650.472 177.879 637.496 183.941 L 637.496 183.941 L 637.496 183.941 Q 624.52 190.004 607.928 190.004 L 607.928 190.004 L 607.928 190.004 Q 591.336 190.004 578.361 183.941 L 578.361 183.941 L 578.361 183.941 Q 565.385 177.879 556.344 167.349 L 556.344 167.349 L 556.344 167.349 Q 547.304 156.82 542.518 142.78 L 542.518 142.78 L 542.518 142.78 Q 537.732 128.741 537.732 112.787 Z  M 558.365 112.787 L 558.365 112.787 L 558.365 112.787 Q 558.365 124.274 561.662 135.123 L 561.662 135.123 L 561.662 135.123 Q 564.959 145.971 571.341 154.267 L 571.341 154.267 L 571.341 154.267 Q 577.722 162.563 586.976 167.562 L 586.976 167.562 L 586.976 167.562 Q 596.229 172.561 607.928 172.561 L 607.928 172.561 L 607.928 172.561 Q 620.266 172.561 629.519 167.987 L 629.519 167.987 L 629.519 167.987 Q 638.772 163.414 645.047 155.437 L 645.047 155.437 L 645.047 155.437 Q 651.323 147.46 654.513 136.505 L 654.513 136.505 L 654.513 136.505 Q 657.704 125.55 657.704 112.787 L 657.704 112.787 L 657.704 112.787 Q 657.704 101.301 654.301 90.665 L 654.301 90.665 L 654.301 90.665 Q 650.897 80.029 644.516 71.733 L 644.516 71.733 L 644.516 71.733 Q 638.134 63.437 628.881 58.438 L 628.881 58.438 L 628.881 58.438 Q 619.628 53.439 607.928 53.439 L 607.928 53.439 L 607.928 53.439 Q 596.229 53.439 586.976 58.013 L 586.976 58.013 L 586.976 58.013 Q 577.722 62.586 571.341 70.563 L 571.341 70.563 L 571.341 70.563 Q 564.959 78.54 561.662 89.388 L 561.662 89.388 L 561.662 89.388 Q 558.365 100.237 558.365 112.787 Z  M 480.936 175.751 L 480.936 175.751 L 480.936 175.751 Q 480.936 169.157 484.659 165.328 L 484.659 165.328 L 484.659 165.328 Q 488.381 161.499 495.188 161.499 L 495.188 161.499 L 495.188 161.499 Q 500.719 161.499 505.08 165.754 L 505.08 165.754 L 505.08 165.754 Q 509.44 170.008 509.44 175.751 L 509.44 175.751 L 509.44 175.751 Q 509.44 182.133 505.399 186.068 L 505.399 186.068 L 505.399 186.068 Q 501.357 190.004 495.188 190.004 L 495.188 190.004 L 495.188 190.004 Q 489.445 190.004 485.191 185.749 L 485.191 185.749 L 485.191 185.749 Q 480.936 181.495 480.936 175.751 Z  M 448.036 169.37 L 448.036 187.451 L 359.546 187.451 L 359.546 38.549 L 379.754 38.549 L 379.754 169.37 L 448.036 169.37 Z  M 139.171 187.451 L 139.171 119.594 L 65.784 119.594 L 65.784 187.451 L 45.575 187.451 L 45.575 38.549 L 65.784 38.549 L 65.784 102.151 L 139.171 102.151 L 139.171 38.549 L 159.379 38.549 L 159.379 187.451 L 139.171 187.451 Z  M 189.159 112.787 L 189.159 112.787 L 189.159 112.787 Q 189.159 96.408 193.946 82.369 L 193.946 82.369 L 193.946 82.369 Q 198.732 68.329 207.772 58.013 L 207.772 58.013 L 207.772 58.013 Q 216.813 47.696 229.788 41.846 L 229.788 41.846 L 229.788 41.846 Q 242.764 35.996 259.356 35.996 L 259.356 35.996 L 259.356 35.996 Q 275.735 35.996 288.817 42.059 L 288.817 42.059 L 288.817 42.059 Q 301.899 48.121 310.94 58.544 L 310.94 58.544 L 310.94 58.544 Q 319.98 68.968 324.873 82.901 L 324.873 82.901 L 324.873 82.901 Q 329.765 96.834 329.765 112.787 L 329.765 112.787 L 329.765 112.787 Q 329.765 128.741 324.979 142.78 L 324.979 142.78 L 324.979 142.78 Q 320.193 156.82 311.046 167.349 L 311.046 167.349 L 311.046 167.349 Q 301.899 177.879 288.924 183.941 L 288.924 183.941 L 288.924 183.941 Q 275.948 190.004 259.356 190.004 L 259.356 190.004 L 259.356 190.004 Q 242.764 190.004 229.788 183.941 L 229.788 183.941 L 229.788 183.941 Q 216.813 177.879 207.772 167.349 L 207.772 167.349 L 207.772 167.349 Q 198.732 156.82 193.946 142.78 L 193.946 142.78 L 193.946 142.78 Q 189.159 128.741 189.159 112.787 Z  M 209.793 112.787 L 209.793 112.787 L 209.793 112.787 Q 209.793 124.274 213.09 135.123 L 213.09 135.123 L 213.09 135.123 Q 216.387 145.971 222.769 154.267 L 222.769 154.267 L 222.769 154.267 Q 229.15 162.563 238.403 167.562 L 238.403 167.562 L 238.403 167.562 Q 247.657 172.561 259.356 172.561 L 259.356 172.561 L 259.356 172.561 Q 271.694 172.561 280.947 167.987 L 280.947 167.987 L 280.947 167.987 Q 290.2 163.414 296.475 155.437 L 296.475 155.437 L 296.475 155.437 Q 302.75 147.46 305.941 136.505 L 305.941 136.505 L 305.941 136.505 Q 309.132 125.55 309.132 112.787 L 309.132 112.787 L 309.132 112.787 Q 309.132 101.301 305.728 90.665 L 305.728 90.665 L 305.728 90.665 Q 302.325 80.029 295.943 71.733 L 295.943 71.733 L 295.943 71.733 Q 289.562 63.437 280.309 58.438 L 280.309 58.438 L 280.309 58.438 Q 271.055 53.439 259.356 53.439 L 259.356 53.439 L 259.356 53.439 Q 247.657 53.439 238.403 58.013 L 238.403 58.013 L 238.403 58.013 Q 229.15 62.586 222.769 70.563 L 222.769 70.563 L 222.769 70.563 Q 216.387 78.54 213.09 89.388 L 213.09 89.388 L 213.09 89.388 Q 209.793 100.237 209.793 112.787 Z " fill="black" stroke="none"/></mask><path d=" M 793.417 187.451 L 727.262 64.501 L 727.262 187.451 L 708.118 187.451 L 708.118 38.549 L 734.92 38.549 L 800.65 162.35 L 800.65 38.549 L 819.794 38.549 L 819.794 187.451 L 793.417 187.451 Z  M 858.083 187.451 L 858.083 38.549 L 947.425 38.549 L 947.425 55.992 L 878.292 55.992 L 878.292 101.301 L 937.852 101.301 L 937.852 118.318 L 878.292 118.318 L 878.292 170.008 L 947.425 170.008 L 947.425 187.451 L 858.083 187.451 Z  M 537.732 112.787 L 537.732 112.787 L 537.732 112.787 Q 537.732 96.408 542.518 82.369 L 542.518 82.369 L 542.518 82.369 Q 547.304 68.329 556.344 58.013 L 556.344 58.013 L 556.344 58.013 Q 565.385 47.696 578.361 41.846 L 578.361 41.846 L 578.361 41.846 Q 591.336 35.996 607.928 35.996 L 607.928 35.996 L 607.928 35.996 Q 624.307 35.996 637.39 42.059 L 637.39 42.059 L 637.39 42.059 Q 650.472 48.121 659.512 58.544 L 659.512 58.544 L 659.512 58.544 Q 668.553 68.968 673.445 82.901 L 673.445 82.901 L 673.445 82.901 Q 678.338 96.834 678.338 112.787 L 678.338 112.787 L 678.338 112.787 Q 678.338 128.741 673.551 142.78 L 673.551 142.78 L 673.551 142.78 Q 668.765 156.82 659.618 167.349 L 659.618 167.349 L 659.618 167.349 Q 650.472 177.879 637.496 183.941 L 637.496 183.941 L 637.496 183.941 Q 624.52 190.004 607.928 190.004 L 607.928 190.004 L 607.928 190.004 Q 591.336 190.004 578.361 183.941 L 578.361 183.941 L 578.361 183.941 Q 565.385 177.879 556.344 167.349 L 556.344 167.349 L 556.344 167.349 Q 547.304 156.82 542.518 142.78 L 542.518 142.78 L 542.518 142.78 Q 537.732 128.741 537.732 112.787 Z  M 558.365 112.787 L 558.365 112.787 L 558.365 112.787 Q 558.365 124.274 561.662 135.123 L 561.662 135.123 L 561.662 135.123 Q 564.959 145.971 571.341 154.267 L 571.341 154.267 L 571.341 154.267 Q 577.722 162.563 586.976 167.562 L 586.976 167.562 L 586.976 167.562 Q 596.229 172.561 607.928 172.561 L 607.928 172.561 L 607.928 172.561 Q 620.266 172.561 629.519 167.987 L 629.519 167.987 L 629.519 167.987 Q 638.772 163.414 645.047 155.437 L 645.047 155.437 L 645.047 155.437 Q 651.323 147.46 654.513 136.505 L 654.513 136.505 L 654.513 136.505 Q 657.704 125.55 657.704 112.787 L 657.704 112.787 L 657.704 112.787 Q 657.704 101.301 654.301 90.665 L 654.301 90.665 L 654.301 90.665 Q 650.897 80.029 644.516 71.733 L 644.516 71.733 L 644.516 71.733 Q 638.134 63.437 628.881 58.438 L 628.881 58.438 L 628.881 58.438 Q 619.628 53.439 607.928 53.439 L 607.928 53.439 L 607.928 53.439 Q 596.229 53.439 586.976 58.013 L 586.976 58.013 L 586.976 58.013 Q 577.722 62.586 571.341 70.563 L 571.341 70.563 L 571.341 70.563 Q 564.959 78.54 561.662 89.388 L 561.662 89.388 L 561.662 89.388 Q 558.365 100.237 558.365 112.787 Z  M 480.936 175.751 L 480.936 175.751 L 480.936 175.751 Q 480.936 169.157 484.659 165.328 L 484.659 165.328 L 484.659 165.328 Q 488.381 161.499 495.188 161.499 L 495.188 161.499 L 495.188 161.499 Q 500.719 161.499 505.08 165.754 L 505.08 165.754 L 505.08 165.754 Q 509.44 170.008 509.44 175.751 L 509.44 175.751 L 509.44 175.751 Q 509.44 182.133 505.399 186.068 L 505.399 186.068 L 505.399 186.068 Q 501.357 190.004 495.188 190.004 L 495.188 190.004 L 495.188 190.004 Q 489.445 190.004 485.191 185.749 L 485.191 185.749 L 485.191 185.749 Q 480.936 181.495 480.936 175.751 Z  M 448.036 169.37 L 448.036 187.451 L 359.546 187.451 L 359.546 38.549 L 379.754 38.549 L 379.754 169.37 L 448.036 169.37 Z  M 139.171 187.451 L 139.171 119.594 L 65.784 119.594 L 65.784 187.451 L 45.575 187.451 L 45.575 38.549 L 65.784 38.549 L 65.784 102.151 L 139.171 102.151 L 139.171 38.549 L 159.379 38.549 L 159.379 187.451 L 139.171 187.451 Z  M 189.159 112.787 L 189.159 112.787 L 189.159 112.787 Q 189.159 96.408 193.946 82.369 L 193.946 82.369 L 193.946 82.369 Q 198.732 68.329 207.772 58.013 L 207.772 58.013 L 207.772 58.013 Q 216.813 47.696 229.788 41.846 L 229.788 41.846 L 229.788 41.846 Q 242.764 35.996 259.356 35.996 L 259.356 35.996 L 259.356 35.996 Q 275.735 35.996 288.817 42.059 L 288.817 42.059 L 288.817 42.059 Q 301.899 48.121 310.94 58.544 L 310.94 58.544 L 310.94 58.544 Q 319.98 68.968 324.873 82.901 L 324.873 82.901 L 324.873 82.901 Q 329.765 96.834 329.765 112.787 L 329.765 112.787 L 329.765 112.787 Q 329.765 128.741 324.979 142.78 L 324.979 142.78 L 324.979 142.78 Q 320.193 156.82 311.046 167.349 L 311.046 167.349 L 311.046 167.349 Q 301.899 177.879 288.924 183.941 L 288.924 183.941 L 288.924 183.941 Q 275.948 190.004 259.356 190.004 L 259.356 190.004 L 259.356 190.004 Q 242.764 190.004 229.788 183.941 L 229.788 183.941 L 229.788 183.941 Q 216.813 177.879 207.772 167.349 L 207.772 167.349 L 207.772 167.349 Q 198.732 156.82 193.946 142.78 L 193.946 142.78 L 193.946 142.78 Q 189.159 128.741 189.159 112.787 Z  M 209.793 112.787 L 209.793 112.787 L 209.793 112.787 Q 209.793 124.274 213.09 135.123 L 213.09 135.123 L 213.09 135.123 Q 216.387 145.971 222.769 154.267 L 222.769 154.267 L 222.769 154.267 Q 229.15 162.563 238.403 167.562 L 238.403 167.562 L 238.403 167.562 Q 247.657 172.561 259.356 172.561 L 259.356 172.561 L 259.356 172.561 Q 271.694 172.561 280.947 167.987 L 280.947 167.987 L 280.947 167.987 Q 290.2 163.414 296.475 155.437 L 296.475 155.437 L 296.475 155.437 Q 302.75 147.46 305.941 136.505 L 305.941 136.505 L 305.941 136.505 Q 309.132 125.55 309.132 112.787 L 309.132 112.787 L 309.132 112.787 Q 309.132 101.301 305.728 90.665 L 305.728 90.665 L 305.728 90.665 Q 302.325 80.029 295.943 71.733 L 295.943 71.733 L 295.943 71.733 Q 289.562 63.437 280.309 58.438 L 280.309 58.438 L 280.309 58.438 Q 271.055 53.439 259.356 53.439 L 259.356 53.439 L 259.356 53.439 Q 247.657 53.439 238.403 58.013 L 238.403 58.013 L 238.403 58.013 Q 229.15 62.586 222.769 70.563 L 222.769 70.563 L 222.769 70.563 Q 216.387 78.54 213.09 89.388 L 213.09 89.388 L 213.09 89.388 Q 209.793 100.237 209.793 112.787 Z " fill="rgb(255,255,255)" mask="url(#_mask_Y2RoSPgL8Z5CN3H6rJvR5x45ysMOX1Uf)" vector-effect="non-scaling-stroke" stroke-width="5" stroke="#fff" stroke-linejoin="miter" stroke-linecap="round" stroke-miterlimit="3"/></g></svg>