<?xml version="1.0" standalone="no"?><!-- Generator: Gravit.io --><svg xmlns="http://www.w3.org/2000/svg" xmlns:xlink="http://www.w3.org/1999/xlink" style="isolation:isolate" viewBox="0 0 993 983" width="993" height="983"><defs><clipPath id="_clipPath_MJeUHZNybEJicuD6MRoMDyqCBSVJ2Xpx"><rect width="993" height="983"/></clipPath></defs><g clip-path="url(#_clipPath_MJeUHZNybEJicuD6MRoMDyqCBSVJ2Xpx)"><g style="isolation:isolate"><mask id="_mask_sWBbhEqVcsiHkyGw6BT7Z6oE3igicNrB" x="-200%" y="-200%" width="400%" height="400%"><rect x="-200%" y="-200%" width="400%" height="400%" style="fill:white;"/><path d=" M 793.737 914.24 L 727.582 791.289 L 727.582 914.24 L 708.437 914.24 L 708.437 765.338 L 735.239 765.338 L 800.969 889.139 L 800.969 765.338 L 820.113 765.338 L 820.113 914.24 L 793.737 914.24 L 793.737 914.24 Z  M 858.402 914.24 L 858.402 765.338 L 947.744 765.338 L 947.744 782.78 L 878.611 782.78 L 878.611 828.089 L 938.171 828.089 L 938.171 845.107 L 878.611 845.107 L 878.611 896.797 L 947.744 896.797 L 947.744 914.24 L 858.402 914.24 L 858.402 914.24 Z  M 538.051 839.576 L 538.051 839.576 L 538.051 839.576 Q 538.051 823.197 542.837 809.157 L 542.837 809.157 L 542.837 809.157 Q 547.623 795.118 556.663 784.801 L 556.663 784.801 L 556.663 784.801 Q 565.704 774.484 578.68 768.635 L 578.68 768.635 L 578.68 768.635 Q 591.655 762.785 608.247 762.785 L 608.247 762.785 L 608.247 762.785 Q 624.627 762.785 637.709 768.847 L 637.709 768.847 L 637.709 768.847 Q 650.791 774.91 659.831 785.333 L 659.831 785.333 L 659.831 785.333 Q 668.872 795.756 673.764 809.689 L 673.764 809.689 L 673.764 809.689 Q 678.657 823.622 678.657 839.576 L 678.657 839.576 L 678.657 839.576 Q 678.657 855.53 673.871 869.569 L 673.871 869.569 L 673.871 869.569 Q 669.084 883.608 659.938 894.138 L 659.938 894.138 L 659.938 894.138 Q 650.791 904.667 637.815 910.73 L 637.815 910.73 L 637.815 910.73 Q 624.839 916.792 608.247 916.792 L 608.247 916.792 L 608.247 916.792 Q 591.655 916.792 578.68 910.73 L 578.68 910.73 L 578.68 910.73 Q 565.704 904.667 556.663 894.138 L 556.663 894.138 L 556.663 894.138 Q 547.623 883.608 542.837 869.569 L 542.837 869.569 L 542.837 869.569 Q 538.051 855.53 538.051 839.576 Z  M 558.684 839.576 L 558.684 839.576 L 558.684 839.576 Q 558.684 851.063 561.981 861.911 L 561.981 861.911 L 561.981 861.911 Q 565.278 872.76 571.66 881.056 L 571.66 881.056 L 571.66 881.056 Q 578.042 889.352 587.295 894.351 L 587.295 894.351 L 587.295 894.351 Q 596.548 899.349 608.247 899.349 L 608.247 899.349 L 608.247 899.349 Q 620.585 899.349 629.838 894.776 L 629.838 894.776 L 629.838 894.776 Q 639.091 890.203 645.366 882.226 L 645.366 882.226 L 645.366 882.226 Q 651.642 874.249 654.832 863.294 L 654.832 863.294 L 654.832 863.294 Q 658.023 852.339 658.023 839.576 L 658.023 839.576 L 658.023 839.576 Q 658.023 828.089 654.62 817.453 L 654.62 817.453 L 654.62 817.453 Q 651.216 806.817 644.835 798.522 L 644.835 798.522 L 644.835 798.522 Q 638.453 790.226 629.2 785.227 L 629.2 785.227 L 629.2 785.227 Q 619.947 780.228 608.247 780.228 L 608.247 780.228 L 608.247 780.228 Q 596.548 780.228 587.295 784.801 L 587.295 784.801 L 587.295 784.801 Q 578.042 789.375 571.66 797.352 L 571.66 797.352 L 571.66 797.352 Q 565.278 805.328 561.981 816.177 L 561.981 816.177 L 561.981 816.177 Q 558.684 827.026 558.684 839.576 Z  M 481.255 902.54 L 481.255 902.54 L 481.255 902.54 Q 481.255 895.946 484.978 892.117 L 484.978 892.117 L 484.978 892.117 Q 488.7 888.288 495.507 888.288 L 495.507 888.288 L 495.507 888.288 Q 501.038 888.288 505.399 892.542 L 505.399 892.542 L 505.399 892.542 Q 509.759 896.797 509.759 902.54 L 509.759 902.54 L 509.759 902.54 Q 509.759 908.922 505.718 912.857 L 505.718 912.857 L 505.718 912.857 Q 501.676 916.792 495.507 916.792 L 495.507 916.792 L 495.507 916.792 Q 489.764 916.792 485.51 912.538 L 485.51 912.538 L 485.51 912.538 Q 481.255 908.283 481.255 902.54 Z  M 448.355 896.159 L 448.355 914.24 L 359.865 914.24 L 359.865 765.338 L 380.073 765.338 L 380.073 896.159 L 448.355 896.159 L 448.355 896.159 Z  M 139.49 914.24 L 139.49 846.383 L 66.103 846.383 L 66.103 914.24 L 45.895 914.24 L 45.895 765.338 L 66.103 765.338 L 66.103 828.94 L 139.49 828.94 L 139.49 765.338 L 159.698 765.338 L 159.698 914.24 L 139.49 914.24 L 139.49 914.24 Z  M 189.478 839.576 L 189.478 839.576 L 189.478 839.576 Q 189.478 823.197 194.265 809.157 L 194.265 809.157 L 194.265 809.157 Q 199.051 795.118 208.091 784.801 L 208.091 784.801 L 208.091 784.801 Q 217.132 774.484 230.107 768.635 L 230.107 768.635 L 230.107 768.635 Q 243.083 762.785 259.675 762.785 L 259.675 762.785 L 259.675 762.785 Q 276.054 762.785 289.136 768.847 L 289.136 768.847 L 289.136 768.847 Q 302.218 774.91 311.259 785.333 L 311.259 785.333 L 311.259 785.333 Q 320.299 795.756 325.192 809.689 L 325.192 809.689 L 325.192 809.689 Q 330.084 823.622 330.084 839.576 L 330.084 839.576 L 330.084 839.576 Q 330.084 855.53 325.298 869.569 L 325.298 869.569 L 325.298 869.569 Q 320.512 883.608 311.365 894.138 L 311.365 894.138 L 311.365 894.138 Q 302.218 904.667 289.243 910.73 L 289.243 910.73 L 289.243 910.73 Q 276.267 916.792 259.675 916.792 L 259.675 916.792 L 259.675 916.792 Q 243.083 916.792 230.107 910.73 L 230.107 910.73 L 230.107 910.73 Q 217.132 904.667 208.091 894.138 L 208.091 894.138 L 208.091 894.138 Q 199.051 883.608 194.265 869.569 L 194.265 869.569 L 194.265 869.569 Q 189.478 855.53 189.478 839.576 Z  M 210.112 839.576 L 210.112 839.576 L 210.112 839.576 Q 210.112 851.063 213.409 861.911 L 213.409 861.911 L 213.409 861.911 Q 216.706 872.76 223.088 881.056 L 223.088 881.056 L 223.088 881.056 Q 229.469 889.352 238.722 894.351 L 238.722 894.351 L 238.722 894.351 Q 247.976 899.349 259.675 899.349 L 259.675 899.349 L 259.675 899.349 Q 272.013 899.349 281.266 894.776 L 281.266 894.776 L 281.266 894.776 Q 290.519 890.203 296.794 882.226 L 296.794 882.226 L 296.794 882.226 Q 303.069 874.249 306.26 863.294 L 306.26 863.294 L 306.26 863.294 Q 309.451 852.339 309.451 839.576 L 309.451 839.576 L 309.451 839.576 Q 309.451 828.089 306.047 817.453 L 306.047 817.453 L 306.047 817.453 Q 302.644 806.817 296.262 798.522 L 296.262 798.522 L 296.262 798.522 Q 289.881 790.226 280.628 785.227 L 280.628 785.227 L 280.628 785.227 Q 271.375 780.228 259.675 780.228 L 259.675 780.228 L 259.675 780.228 Q 247.976 780.228 238.722 784.801 L 238.722 784.801 L 238.722 784.801 Q 229.469 789.375 223.088 797.352 L 223.088 797.352 L 223.088 797.352 Q 216.706 805.328 213.409 816.177 L 213.409 816.177 L 213.409 816.177 Q 210.112 827.026 210.112 839.576 Z " fill="black" stroke="none"/></mask><path d=" M 793.737 914.24 L 727.582 791.289 L 727.582 914.24 L 708.437 914.24 L 708.437 765.338 L 735.239 765.338 L 800.969 889.139 L 800.969 765.338 L 820.113 765.338 L 820.113 914.24 L 793.737 914.24 L 793.737 914.24 Z  M 858.402 914.24 L 858.402 765.338 L 947.744 765.338 L 947.744 782.78 L 878.611 782.78 L 878.611 828.089 L 938.171 828.089 L 938.171 845.107 L 878.611 845.107 L 878.611 896.797 L 947.744 896.797 L 947.744 914.24 L 858.402 914.24 L 858.402 914.24 Z  M 538.051 839.576 L 538.051 839.576 L 538.051 839.576 Q 538.051 823.197 542.837 809.157 L 542.837 809.157 L 542.837 809.157 Q 547.623 795.118 556.663 784.801 L 556.663 784.801 L 556.663 784.801 Q 565.704 774.484 578.68 768.635 L 578.68 768.635 L 578.68 768.635 Q 591.655 762.785 608.247 762.785 L 608.247 762.785 L 608.247 762.785 Q 624.627 762.785 637.709 768.847 L 637.709 768.847 L 637.709 768.847 Q 650.791 774.91 659.831 785.333 L 659.831 785.333 L 659.831 785.333 Q 668.872 795.756 673.764 809.689 L 673.764 809.689 L 673.764 809.689 Q 678.657 823.622 678.657 839.576 L 678.657 839.576 L 678.657 839.576 Q 678.657 855.53 673.871 869.569 L 673.871 869.569 L 673.871 869.569 Q 669.084 883.608 659.938 894.138 L 659.938 894.138 L 659.938 894.138 Q 650.791 904.667 637.815 910.73 L 637.815 910.73 L 637.815 910.73 Q 624.839 916.792 608.247 916.792 L 608.247 916.792 L 608.247 916.792 Q 591.655 916.792 578.68 910.73 L 578.68 910.73 L 578.68 910.73 Q 565.704 904.667 556.663 894.138 L 556.663 894.138 L 556.663 894.138 Q 547.623 883.608 542.837 869.569 L 542.837 869.569 L 542.837 869.569 Q 538.051 855.53 538.051 839.576 Z  M 558.684 839.576 L 558.684 839.576 L 558.684 839.576 Q 558.684 851.063 561.981 861.911 L 561.981 861.911 L 561.981 861.911 Q 565.278 872.76 571.66 881.056 L 571.66 881.056 L 571.66 881.056 Q 578.042 889.352 587.295 894.351 L 587.295 894.351 L 587.295 894.351 Q 596.548 899.349 608.247 899.349 L 608.247 899.349 L 608.247 899.349 Q 620.585 899.349 629.838 894.776 L 629.838 894.776 L 629.838 894.776 Q 639.091 890.203 645.366 882.226 L 645.366 882.226 L 645.366 882.226 Q 651.642 874.249 654.832 863.294 L 654.832 863.294 L 654.832 863.294 Q 658.023 852.339 658.023 839.576 L 658.023 839.576 L 658.023 839.576 Q 658.023 828.089 654.62 817.453 L 654.62 817.453 L 654.62 817.453 Q 651.216 806.817 644.835 798.522 L 644.835 798.522 L 644.835 798.522 Q 638.453 790.226 629.2 785.227 L 629.2 785.227 L 629.2 785.227 Q 619.947 780.228 608.247 780.228 L 608.247 780.228 L 608.247 780.228 Q 596.548 780.228 587.295 784.801 L 587.295 784.801 L 587.295 784.801 Q 578.042 789.375 571.66 797.352 L 571.66 797.352 L 571.66 797.352 Q 565.278 805.328 561.981 816.177 L 561.981 816.177 L 561.981 816.177 Q 558.684 827.026 558.684 839.576 Z  M 481.255 902.54 L 481.255 902.54 L 481.255 902.54 Q 481.255 895.946 484.978 892.117 L 484.978 892.117 L 484.978 892.117 Q 488.7 888.288 495.507 888.288 L 495.507 888.288 L 495.507 888.288 Q 501.038 888.288 505.399 892.542 L 505.399 892.542 L 505.399 892.542 Q 509.759 896.797 509.759 902.54 L 509.759 902.54 L 509.759 902.54 Q 509.759 908.922 505.718 912.857 L 505.718 912.857 L 505.718 912.857 Q 501.676 916.792 495.507 916.792 L 495.507 916.792 L 495.507 916.792 Q 489.764 916.792 485.51 912.538 L 485.51 912.538 L 485.51 912.538 Q 481.255 908.283 481.255 902.54 Z  M 448.355 896.159 L 448.355 914.24 L 359.865 914.24 L 359.865 765.338 L 380.073 765.338 L 380.073 896.159 L 448.355 896.159 L 448.355 896.159 Z  M 139.49 914.24 L 139.49 846.383 L 66.103 846.383 L 66.103 914.24 L 45.895 914.24 L 45.895 765.338 L 66.103 765.338 L 66.103 828.94 L 139.49 828.94 L 139.49 765.338 L 159.698 765.338 L 159.698 914.24 L 139.49 914.24 L 139.49 914.24 Z  M 189.478 839.576 L 189.478 839.576 L 189.478 839.576 Q 189.478 823.197 194.265 809.157 L 194.265 809.157 L 194.265 809.157 Q 199.051 795.118 208.091 784.801 L 208.091 784.801 L 208.091 784.801 Q 217.132 774.484 230.107 768.635 L 230.107 768.635 L 230.107 768.635 Q 243.083 762.785 259.675 762.785 L 259.675 762.785 L 259.675 762.785 Q 276.054 762.785 289.136 768.847 L 289.136 768.847 L 289.136 768.847 Q 302.218 774.91 311.259 785.333 L 311.259 785.333 L 311.259 785.333 Q 320.299 795.756 325.192 809.689 L 325.192 809.689 L 325.192 809.689 Q 330.084 823.622 330.084 839.576 L 330.084 839.576 L 330.084 839.576 Q 330.084 855.53 325.298 869.569 L 325.298 869.569 L 325.298 869.569 Q 320.512 883.608 311.365 894.138 L 311.365 894.138 L 311.365 894.138 Q 302.218 904.667 289.243 910.73 L 289.243 910.73 L 289.243 910.73 Q 276.267 916.792 259.675 916.792 L 259.675 916.792 L 259.675 916.792 Q 243.083 916.792 230.107 910.73 L 230.107 910.73 L 230.107 910.73 Q 217.132 904.667 208.091 894.138 L 208.091 894.138 L 208.091 894.138 Q 199.051 883.608 194.265 869.569 L 194.265 869.569 L 194.265 869.569 Q 189.478 855.53 189.478 839.576 Z  M 210.112 839.576 L 210.112 839.576 L 210.112 839.576 Q 210.112 851.063 213.409 861.911 L 213.409 861.911 L 213.409 861.911 Q 216.706 872.76 223.088 881.056 L 223.088 881.056 L 223.088 881.056 Q 229.469 889.352 238.722 894.351 L 238.722 894.351 L 238.722 894.351 Q 247.976 899.349 259.675 899.349 L 259.675 899.349 L 259.675 899.349 Q 272.013 899.349 281.266 894.776 L 281.266 894.776 L 281.266 894.776 Q 290.519 890.203 296.794 882.226 L 296.794 882.226 L 296.794 882.226 Q 303.069 874.249 306.26 863.294 L 306.26 863.294 L 306.26 863.294 Q 309.451 852.339 309.451 839.576 L 309.451 839.576 L 309.451 839.576 Q 309.451 828.089 306.047 817.453 L 306.047 817.453 L 306.047 817.453 Q 302.644 806.817 296.262 798.522 L 296.262 798.522 L 296.262 798.522 Q 289.881 790.226 280.628 785.227 L 280.628 785.227 L 280.628 785.227 Q 271.375 780.228 259.675 780.228 L 259.675 780.228 L 259.675 780.228 Q 247.976 780.228 238.722 784.801 L 238.722 784.801 L 238.722 784.801 Q 229.469 789.375 223.088 797.352 L 223.088 797.352 L 223.088 797.352 Q 216.706 805.328 213.409 816.177 L 213.409 816.177 L 213.409 816.177 Q 210.112 827.026 210.112 839.576 Z " fill="rgb(255,255,255)" mask="url(#_mask_sWBbhEqVcsiHkyGw6BT7Z6oE3igicNrB)" vector-effect="non-scaling-stroke" stroke-width="20" stroke="rgb(0,0,0)" stroke-linejoin="miter" stroke-linecap="round" stroke-miterlimit="3"/><line x1="26.75" y1="718.54" x2="966.25" y2="718.54" vector-effect="non-scaling-stroke" stroke-width="10" stroke="rgb(0,0,0)" stroke-linejoin="miter" stroke-linecap="square" stroke-miterlimit="3"/><g><path d=" M 521.317 16.574 L 609.949 388.829 L 521.317 484.551 L 627.675 413.646 L 819.121 668.906 L 966.25 668.906 L 758.851 169.021 L 691.491 286.015 L 521.317 16.574 Z " fill="rgb(0,0,0)"/><path d=" M 26.75 668.906 L 219.968 286.015 L 312.145 371.102 L 521.317 13.029 L 691.491 286.015 L 758.851 169.021 L 966.25 668.906 L 26.75 668.906 Z " fill="none" vector-effect="non-scaling-stroke" stroke-width="10" stroke="rgb(0,0,0)" stroke-linejoin="miter" stroke-linecap="square" stroke-miterlimit="3"/></g></g></g></svg>